<svg xmlns="http://www.w3.org/2000/svg" width="110px" height="110px" xmlns:xlink="http://www.w3.org/1999/xlink" viewBox="226.19064331054688 163.25588989257812 101.50323486328125 101.27767944335938" preserveAspectRatio="xMidYMid meet" ><rect id="svgEditorBackground" x="0" y="0" width="1310" height="930" style="fill:none; stroke: none;"/><defs id="svgEditorDefs"><symbol id="1f600" viewBox="0 0 64 64" preserveAspectRatio="xMidYMid meet"><rect x="0" y="0" width="64" height="64" style="stroke:none;fill:none;"/><g xmlns="http://www.w3.org/2000/svg"><circle cx="32" cy="32" fill="#ffdd67" r="30"/><path d="m51 35.32c0 8.05-6.311 17.447-19 17.447-12.693 0-19-9.395-19-17.447 0 0 6.307 0 19 0 12.689 0 19 0 19 0" fill="#664e27"/><path d="m34.1 40.803c-.662-.016-1.676.576-1.305 2.143.188.791 1.355 1.748 1.355 3.02 0 2.596-4.303 2.596-4.303 0 0-1.275 1.168-2.232 1.355-3.02.373-1.566-.645-2.158-1.303-2.143-1.791.045-4.729 1.9-4.729 5.04 0 3.529 3.057 6.389 6.828 6.389 3.77 0 6.826-2.859 6.826-6.389.002-3.139-2.937-4.994-4.724-5.04" fill="#4c3526"/><path d="m41.1 51.02c-2.408-1.408-5.432-2.299-9.105-2.299s-6.697.891-9.104 2.299c2.406 1.41 5.43 2.299 9.104 2.299s6.697-.889 9.105-2.299" fill="#ff717f"/><path d="m13 35h38v5h-38z" fill="#fff"/><path d="m32 53.764c-12.99 0-20-9.504-20-18.447v-1h40v1c0 8.943-7.01 18.447-20 18.447m-17.967-17.448c.504 7.666 6.764 15.448 17.967 15.448s17.465-7.781 17.969-15.447h-35.936z" fill="#664e27"/><path d="m28.5 22c0 4.418-3.584 8-8 8-4.418 0-8-3.582-8-8 0-4.416 3.582-8 8-8 4.416 0 8 3.584 8 8" fill="#fff"/><circle cx="20.5" cy="22" fill="#664e27" r="4"/><path d="m51.5 22c0 4.418-3.584 8-8 8-4.418 0-8-3.582-8-8 0-4.416 3.582-8 8-8 4.416 0 8 3.584 8 8" fill="#fff"/><circle cx="43.5" cy="22" fill="#664e27" r="4"/></g></symbol></defs><use xlink:href="#1f600" x="223" y="160" width="108" height="108" id="e1_emoji"/></svg>